<svg id="Layer_1" xmlns="http://www.w3.org/2000/svg" viewBox="0 0 619.2 471.6"><style>.st2,.st3{fill:none;stroke:#30456b;stroke-width:5.214;stroke-linecap:round;stroke-linejoin:round}.st3{fill:#f16362}.st4{fill:#30456b}.st5{fill:#f16362}</style><path d="M123.3 289.3c0-102.9 83.4-186.3 186.3-186.3S496 186.4 496 289.3" fill="none" stroke="#30456b" stroke-width="6.952" stroke-linecap="round" stroke-linejoin="round"/><path d="M299.7 279.5h19.9v19.9h-19.9v-19.9z" fill="#f16362" stroke="#30456b" stroke-width="4.039" stroke-linecap="round" stroke-linejoin="round"/><path class="st2" d="M195.9 102.9h227.4"/><path class="st3" d="M299.9 93h19.9v19.9h-19.9V93zM186 92.9h19.9v19.9H186V92.9zm227.4.1h19.9v19.9h-19.9V93z"/><path class="st2" d="M496 175.6v113.7"/><path class="st3" d="M486 279.5h19.9v19.9H486v-19.9zm0-113.9h19.9v19.9H486v-19.9z"/><g><path class="st2" d="M123.3 175.6v113.7"/><path class="st3" d="M113.4 279.5h19.9v19.9h-19.9v-19.9zm0-113.9h19.9v19.9h-19.9v-19.9z"/></g><g><path class="st4" d="M126 370.8c0-.9-.5-1.4-1.4-1.4h-2.5v-6.7h7c2.9 0 4 1.3 4 3.1v1.2h.1s2.7-5 10.1-5c8.6 0 14.1 6.8 14.1 16.6 0 10.1-6.2 16.6-14.6 16.6-6.3 0-9.1-4.2-9.1-4.2h-.1s.1 1.1.1 2.7V407H126v-36.2zm15.5 17.8c4.4 0 8-3.6 8-9.8 0-6-3.2-10-7.9-10-4.1 0-8 3-8 10 .1 4.9 2.7 9.8 7.9 9.8zM180.1 374.6h1v-.2c0-4.5-1.8-6.2-5.9-6.2-1.4 0-4.2.4-4.2 2.1v1.7h-7.4v-3.4c0-5.9 8.4-6.5 11.7-6.5 10.6 0 13.7 5.5 13.7 12.7v11.8c0 .9.5 1.4 1.4 1.4h2.5v6.7h-7.1c-2.9 0-4.1-1.6-4.1-3.5 0-.8.1-1.4.1-1.4h-.1s-2.4 5.6-9.6 5.6c-5.7 0-10.8-3.6-10.8-9.9 0-10.1 13.7-10.9 18.8-10.9zm-6.1 14.5c4.2 0 7.2-4.5 7.2-8.4v-.7h-1.4c-4.1 0-10.7.6-10.7 5 .1 2.1 1.7 4.1 4.9 4.1zM199.4 369h-4.1v-6.3h4.3V354h7.7v8.7h7.2v6.3h-7.2v12.8c0 5.2 4.1 6 6.3 6 .9 0 1.4-.1 1.4-.1v6.9s-1 .2-2.4.2c-4.4 0-13.2-1.3-13.2-12V369zM221.7 358.4c0-.9-.5-1.4-1.4-1.4h-2.5v-6.7h7.5c2.9 0 4.2 1.3 4.2 4.2v11.2c0 1.6-.1 2.7-.1 2.7h.1c1.5-3.1 5.4-6.3 10.9-6.3 7.1 0 11.1 3.7 11.1 12.1v12.4c0 .9.5 1.4 1.4 1.4h2.5v6.7h-7.5c-2.9 0-4.2-1.2-4.2-4.2v-14.6c0-3.9-1.1-6.5-5-6.5-4.2 0-7.4 2.7-8.6 6.6-.4 1.2-.5 2.6-.5 4.1v14.6h-7.9v-36.3z"/><path class="st5" d="M262 369h-4.1v-6.3h4.3V354h7.7v8.7h7.2v6.3h-7.2v12.8c0 5.2 4.1 6 6.3 6 .9 0 1.4-.1 1.4-.1v6.9s-1 .2-2.4.2c-4.4 0-13.2-1.3-13.2-12V369zM284.3 358.4c0-.9-.5-1.4-1.4-1.4h-2.5v-6.7h7.5c2.9 0 4.2 1.3 4.2 4.2v11.2c0 1.6-.1 2.7-.1 2.7h.1c1.5-3.1 5.4-6.3 10.9-6.3 7.1 0 11.1 3.7 11.1 12.1v12.4c0 .9.5 1.4 1.4 1.4h2.5v6.7h-7.5c-2.9 0-4.2-1.2-4.2-4.2v-14.6c0-3.9-1.1-6.5-5-6.5-4.2 0-7.4 2.7-8.6 6.6-.4 1.2-.5 2.6-.5 4.1v14.6h-7.9v-36.3zM340.2 374.6h1v-.2c0-4.5-1.8-6.2-5.9-6.2-1.4 0-4.2.4-4.2 2.1v1.7h-7.4v-3.4c0-5.9 8.3-6.5 11.7-6.5 10.6 0 13.7 5.5 13.7 12.7v11.8c0 .9.5 1.4 1.4 1.4h2.5v6.7h-7.1c-2.9 0-4.1-1.6-4.1-3.5 0-.8.1-1.4.1-1.4h-.1s-2.4 5.6-9.6 5.6c-5.7 0-10.8-3.6-10.8-9.9-.1-10.1 13.6-10.9 18.8-10.9zm-6.2 14.5c4.2 0 7.2-4.5 7.2-8.4v-.7h-1.4c-4.1 0-10.7.6-10.7 5 .1 2.1 1.7 4.1 4.9 4.1zM359.4 369h-4.1v-6.3h4.3V354h7.7v8.7h7.2v6.3h-7.2v12.8c0 5.2 4.1 6 6.3 6 .9 0 1.4-.1 1.4-.1v6.9s-1 .2-2.4.2c-4.4 0-13.2-1.3-13.2-12V369z"/><path class="st4" d="M382.5 384.4s4.1 4.7 9.5 4.7c2.4 0 4.3-1 4.3-3.1 0-4.5-16.8-4.4-16.8-14.7 0-6.4 5.7-9.3 12.3-9.3 4.3 0 11.2 1.4 11.2 6.6v3.3h-7v-1.6c0-1.5-2.2-2.2-4-2.2-2.8 0-4.7 1-4.7 2.9 0 5 16.9 4 16.9 14.6 0 6-5.3 9.7-12.2 9.7-8.7 0-13.2-5.7-13.2-5.7l3.7-5.2zM409.5 370.6c-.3-.8-.9-1.1-1.7-1.1h-.7v-6.7h4.5c2.6 0 3.9.8 4.7 3l6 16.7c.7 1.9 1.2 4.5 1.2 4.5h.1s.5-2.7 1.1-4.5l6-16.7c.8-2.2 2.1-3 4.7-3h4.2v6.7h-.7c-.9 0-1.4.3-1.7 1.1l-9.1 23.9h-9.4l-9.2-23.9zM455.7 362c7.4 0 9.8 4.5 9.8 4.5h.1v-.8c0-1.4 1-2.9 3.5-2.9h7.4v6.7h-2.4c-.8 0-1.4.4-1.4 1.2v21.9c0 10.9-8.5 15-16.8 15-4 0-8.2-1.1-11.3-2.7l2.4-6.2s3.9 2.1 8.8 2.1c4.8 0 9-2.1 9-7.8v-1.5c0-.7.1-1.7.1-1.7h-.1c-1.9 2.7-4.6 4.1-8.8 4.1-9.1 0-14.3-7.4-14.3-16.1s4.9-15.8 14-15.8zm9.3 15.9c0-7.2-3.6-9.2-7.9-9.2-4.8 0-7.4 3.5-7.4 8.8 0 5.5 2.8 9.7 7.9 9.7 3.8 0 7.4-2.2 7.4-9.3zM484 350.3h8.2l-.6 31.5h-6.9l-.7-31.5zm.3 36.9h7.7v7.4h-7.7v-7.4z"/></g></svg>